<mxfile host="app.diagrams.net" modified="2023-03-08T08:33:58.097Z" agent="5.0 (Windows NT 10.0; Win64; x64) AppleWebKit/537.36 (KHTML, like Gecko) Chrome/110.0.0.0 Safari/537.36" etag="VXCdHx70tKMAA5_OIlwv" version="21.0.2" type="github">
  <diagram name="第 1 页" id="ErkFQInz7MT---hFU15H">
    <mxGraphModel dx="1249" dy="465" grid="1" gridSize="10" guides="1" tooltips="1" connect="1" arrows="1" fold="1" page="1" pageScale="1" pageWidth="827" pageHeight="1169" math="0" shadow="0">
      <root>
        <mxCell id="0" />
        <mxCell id="1" parent="0" />
        <mxCell id="0-X5SjwKyUIKf4-druoj-1" value="" style="edgeStyle=orthogonalEdgeStyle;rounded=0;orthogonalLoop=1;jettySize=auto;html=1;" edge="1" parent="1">
          <mxGeometry relative="1" as="geometry">
            <mxPoint x="350" y="220" as="sourcePoint" />
            <mxPoint x="350" y="250" as="targetPoint" />
          </mxGeometry>
        </mxCell>
        <mxCell id="0-X5SjwKyUIKf4-druoj-2" value="" style="edgeStyle=orthogonalEdgeStyle;rounded=0;orthogonalLoop=1;jettySize=auto;html=1;" edge="1" parent="1">
          <mxGeometry relative="1" as="geometry">
            <mxPoint x="350" y="340" as="targetPoint" />
            <mxPoint x="350" y="310" as="sourcePoint" />
          </mxGeometry>
        </mxCell>
        <mxCell id="0-X5SjwKyUIKf4-druoj-3" value="注册" style="rounded=0;whiteSpace=wrap;html=1;" vertex="1" parent="1">
          <mxGeometry x="305" y="180" width="90" height="40" as="geometry" />
        </mxCell>
        <mxCell id="0-X5SjwKyUIKf4-druoj-4" value="实名认证" style="rounded=0;whiteSpace=wrap;html=1;" vertex="1" parent="1">
          <mxGeometry x="460" y="260" width="90" height="40" as="geometry" />
        </mxCell>
        <mxCell id="0-X5SjwKyUIKf4-druoj-5" value="" style="edgeStyle=orthogonalEdgeStyle;rounded=0;orthogonalLoop=1;jettySize=auto;html=1;" edge="1" parent="1" source="0-X5SjwKyUIKf4-druoj-6" target="0-X5SjwKyUIKf4-druoj-8">
          <mxGeometry relative="1" as="geometry" />
        </mxCell>
        <mxCell id="0-X5SjwKyUIKf4-druoj-6" value="预约申购" style="rounded=0;whiteSpace=wrap;html=1;" vertex="1" parent="1">
          <mxGeometry x="305" y="340" width="90" height="40" as="geometry" />
        </mxCell>
        <mxCell id="0-X5SjwKyUIKf4-druoj-7" value="" style="edgeStyle=orthogonalEdgeStyle;rounded=0;orthogonalLoop=1;jettySize=auto;html=1;" edge="1" parent="1" source="0-X5SjwKyUIKf4-druoj-8" target="0-X5SjwKyUIKf4-druoj-10">
          <mxGeometry relative="1" as="geometry" />
        </mxCell>
        <mxCell id="0-X5SjwKyUIKf4-druoj-8" value="风控" style="rounded=0;whiteSpace=wrap;html=1;" vertex="1" parent="1">
          <mxGeometry x="305" y="410" width="90" height="40" as="geometry" />
        </mxCell>
        <mxCell id="0-X5SjwKyUIKf4-druoj-9" value="" style="edgeStyle=orthogonalEdgeStyle;rounded=0;orthogonalLoop=1;jettySize=auto;html=1;" edge="1" parent="1" source="0-X5SjwKyUIKf4-druoj-10">
          <mxGeometry relative="1" as="geometry">
            <mxPoint x="350" y="550" as="targetPoint" />
          </mxGeometry>
        </mxCell>
        <mxCell id="0-X5SjwKyUIKf4-druoj-10" value="结果公示" style="rounded=0;whiteSpace=wrap;html=1;" vertex="1" parent="1">
          <mxGeometry x="305" y="480" width="90" height="40" as="geometry" />
        </mxCell>
        <mxCell id="0-X5SjwKyUIKf4-druoj-11" style="edgeStyle=orthogonalEdgeStyle;rounded=0;orthogonalLoop=1;jettySize=auto;html=1;exitX=0.5;exitY=1;exitDx=0;exitDy=0;entryX=0.5;entryY=0;entryDx=0;entryDy=0;" edge="1" parent="1" source="0-X5SjwKyUIKf4-druoj-13" target="0-X5SjwKyUIKf4-druoj-17">
          <mxGeometry relative="1" as="geometry" />
        </mxCell>
        <mxCell id="0-X5SjwKyUIKf4-druoj-12" style="edgeStyle=orthogonalEdgeStyle;rounded=0;orthogonalLoop=1;jettySize=auto;html=1;exitX=1;exitY=0.5;exitDx=0;exitDy=0;" edge="1" parent="1" source="0-X5SjwKyUIKf4-druoj-13" target="0-X5SjwKyUIKf4-druoj-18">
          <mxGeometry relative="1" as="geometry" />
        </mxCell>
        <mxCell id="0-X5SjwKyUIKf4-druoj-13" value="是否当天支付" style="rhombus;whiteSpace=wrap;html=1;" vertex="1" parent="1">
          <mxGeometry x="295" y="550" width="110" height="60" as="geometry" />
        </mxCell>
        <mxCell id="0-X5SjwKyUIKf4-druoj-14" style="edgeStyle=orthogonalEdgeStyle;rounded=0;orthogonalLoop=1;jettySize=auto;html=1;exitX=1;exitY=0.5;exitDx=0;exitDy=0;entryX=0;entryY=0.5;entryDx=0;entryDy=0;" edge="1" parent="1" source="0-X5SjwKyUIKf4-druoj-16" target="0-X5SjwKyUIKf4-druoj-4">
          <mxGeometry relative="1" as="geometry" />
        </mxCell>
        <mxCell id="0-X5SjwKyUIKf4-druoj-15" style="edgeStyle=orthogonalEdgeStyle;rounded=0;orthogonalLoop=1;jettySize=auto;html=1;entryX=0.5;entryY=0;entryDx=0;entryDy=0;" edge="1" parent="1" source="0-X5SjwKyUIKf4-druoj-16" target="0-X5SjwKyUIKf4-druoj-24">
          <mxGeometry relative="1" as="geometry" />
        </mxCell>
        <mxCell id="0-X5SjwKyUIKf4-druoj-16" value="是否实名" style="rhombus;whiteSpace=wrap;html=1;" vertex="1" parent="1">
          <mxGeometry x="295" y="250" width="110" height="60" as="geometry" />
        </mxCell>
        <mxCell id="0-X5SjwKyUIKf4-druoj-17" value="门店提货" style="rounded=0;whiteSpace=wrap;html=1;" vertex="1" parent="1">
          <mxGeometry x="305" y="640" width="90" height="40" as="geometry" />
        </mxCell>
        <mxCell id="0-X5SjwKyUIKf4-druoj-18" value="申购作废" style="rounded=0;whiteSpace=wrap;html=1;" vertex="1" parent="1">
          <mxGeometry x="460" y="640" width="90" height="40" as="geometry" />
        </mxCell>
        <mxCell id="0-X5SjwKyUIKf4-druoj-19" value="是" style="text;html=1;align=center;verticalAlign=middle;resizable=0;points=[];autosize=1;" vertex="1" parent="1">
          <mxGeometry x="310" y="310" width="40" height="20" as="geometry" />
        </mxCell>
        <mxCell id="0-X5SjwKyUIKf4-druoj-20" value="否" style="text;html=1;align=center;verticalAlign=middle;resizable=0;points=[];autosize=1;" vertex="1" parent="1">
          <mxGeometry x="405" y="260" width="40" height="20" as="geometry" />
        </mxCell>
        <mxCell id="0-X5SjwKyUIKf4-druoj-21" value="否" style="text;html=1;align=center;verticalAlign=middle;resizable=0;points=[];autosize=1;" vertex="1" parent="1">
          <mxGeometry x="405" y="558" width="40" height="20" as="geometry" />
        </mxCell>
        <mxCell id="0-X5SjwKyUIKf4-druoj-22" value="是" style="text;html=1;align=center;verticalAlign=middle;resizable=0;points=[];autosize=1;" vertex="1" parent="1">
          <mxGeometry x="310" y="610" width="40" height="20" as="geometry" />
        </mxCell>
        <mxCell id="0-X5SjwKyUIKf4-druoj-23" style="edgeStyle=orthogonalEdgeStyle;rounded=0;orthogonalLoop=1;jettySize=auto;html=1;exitX=0.5;exitY=1;exitDx=0;exitDy=0;" edge="1" parent="1" source="0-X5SjwKyUIKf4-druoj-24" target="0-X5SjwKyUIKf4-druoj-27">
          <mxGeometry relative="1" as="geometry">
            <mxPoint x="225" y="430" as="targetPoint" />
          </mxGeometry>
        </mxCell>
        <mxCell id="0-X5SjwKyUIKf4-druoj-24" value="云购" style="rounded=0;whiteSpace=wrap;html=1;" vertex="1" parent="1">
          <mxGeometry x="180" y="340" width="90" height="40" as="geometry" />
        </mxCell>
        <mxCell id="0-X5SjwKyUIKf4-druoj-25" value="是" style="text;html=1;align=center;verticalAlign=middle;resizable=0;points=[];autosize=1;" vertex="1" parent="1">
          <mxGeometry x="190" y="300" width="40" height="20" as="geometry" />
        </mxCell>
        <mxCell id="0-X5SjwKyUIKf4-druoj-26" style="edgeStyle=orthogonalEdgeStyle;rounded=0;orthogonalLoop=1;jettySize=auto;html=1;exitX=0.5;exitY=1;exitDx=0;exitDy=0;" edge="1" parent="1" source="0-X5SjwKyUIKf4-druoj-27" target="0-X5SjwKyUIKf4-druoj-30">
          <mxGeometry relative="1" as="geometry" />
        </mxCell>
        <mxCell id="0-X5SjwKyUIKf4-druoj-27" value="部分风控" style="rounded=0;whiteSpace=wrap;html=1;" vertex="1" parent="1">
          <mxGeometry x="180" y="410" width="90" height="40" as="geometry" />
        </mxCell>
        <mxCell id="0-X5SjwKyUIKf4-druoj-28" style="edgeStyle=orthogonalEdgeStyle;rounded=0;orthogonalLoop=1;jettySize=auto;html=1;exitX=0.5;exitY=1;exitDx=0;exitDy=0;" edge="1" parent="1" source="0-X5SjwKyUIKf4-druoj-30" target="0-X5SjwKyUIKf4-druoj-31">
          <mxGeometry relative="1" as="geometry" />
        </mxCell>
        <mxCell id="0-X5SjwKyUIKf4-druoj-29" style="edgeStyle=orthogonalEdgeStyle;rounded=0;orthogonalLoop=1;jettySize=auto;html=1;exitX=0.5;exitY=1;exitDx=0;exitDy=0;entryX=0.5;entryY=0;entryDx=0;entryDy=0;" edge="1" parent="1" source="0-X5SjwKyUIKf4-druoj-30" target="0-X5SjwKyUIKf4-druoj-32">
          <mxGeometry relative="1" as="geometry" />
        </mxCell>
        <mxCell id="0-X5SjwKyUIKf4-druoj-30" value="购买" style="rounded=0;whiteSpace=wrap;html=1;" vertex="1" parent="1">
          <mxGeometry x="180" y="480" width="90" height="40" as="geometry" />
        </mxCell>
        <mxCell id="0-X5SjwKyUIKf4-druoj-31" value="门店提货" style="rounded=0;whiteSpace=wrap;html=1;" vertex="1" parent="1">
          <mxGeometry x="100" y="590" width="90" height="40" as="geometry" />
        </mxCell>
        <mxCell id="0-X5SjwKyUIKf4-druoj-32" value="快递" style="rounded=0;whiteSpace=wrap;html=1;" vertex="1" parent="1">
          <mxGeometry x="205" y="590" width="90" height="40" as="geometry" />
        </mxCell>
      </root>
    </mxGraphModel>
  </diagram>
</mxfile>
